<svg width="145" height="150" viewBox="0 0 145 150" fill="none" xmlns="http://www.w3.org/2000/svg">
<g clip-path="url(#clip0_8_2)">
<path d="M42.6115 104.016C42.5702 100.573 42.8761 97.1345 43.5247 93.7525C43.6624 93.023 43.8818 92.3037 44.0348 91.5743C44.0909 91.2937 43.9889 91.2121 43.7644 91.1458C43.0809 90.9468 42.3871 90.7836 41.7239 90.5336C39.9282 89.8551 38.0917 89.2378 36.3726 88.3961C35.3279 87.9648 34.3182 87.4531 33.3526 86.8657C32.2711 86.1107 31.0774 85.5343 30.0163 84.718C28.9374 83.9407 27.9146 83.0884 26.9555 82.1674C26.0154 81.195 25.206 80.1044 24.5477 78.9229C23.9879 77.9427 23.6324 76.8592 23.5027 75.7379C23.3729 74.6165 23.4716 73.4805 23.7927 72.3983C24.1264 71.3592 24.6316 70.3833 25.2874 69.5109C26.2059 68.2092 27.2993 67.0402 28.5369 66.0369C29.4705 65.2513 30.5009 64.6341 31.4906 63.9403C33.6026 62.466 35.939 61.4814 38.2601 60.4254C39.928 59.7351 41.6307 59.1323 43.3614 58.6196C43.8716 58.4461 44.0552 58.2421 43.9022 57.6605C42.8272 53.4138 42.3702 49.0343 42.5452 44.6572C42.5699 42.7604 42.8373 40.8745 43.3411 39.0457C43.6902 37.7157 44.2425 36.4475 44.9786 35.286C45.6869 34.1787 46.6224 33.2345 47.7231 32.516C50.0901 31.0264 52.5949 31.0621 55.1915 31.4702C57.1045 31.7763 58.844 32.5823 60.5785 33.3679C62.4526 34.2258 64.2309 35.2791 65.8839 36.5103C67.0011 37.3418 68.1489 38.1326 69.2355 38.9998C70.2557 39.8058 71.1893 40.6781 72.1381 41.5505C72.4136 41.8004 72.582 41.8004 72.8268 41.5505C73.7607 40.6376 74.7433 39.7759 75.7703 38.9692C76.9624 37.9699 78.2109 37.0399 79.5096 36.1838C80.5299 35.5309 81.5501 34.9391 82.5398 34.3066C83.8585 33.559 85.2311 32.911 86.6464 32.368C88.7182 31.4629 90.9754 31.0625 93.2322 31.1998C94.3601 31.1912 95.4714 31.4704 96.4613 32.0109C97.4927 32.5653 98.4101 33.3096 99.1651 34.2045C100.075 35.4666 100.795 36.8554 101.303 38.3264C102.262 40.8771 102.374 43.5196 102.42 46.1825C102.454 49.222 102.182 52.2573 101.609 55.2425C101.475 56.0464 101.294 56.8419 101.068 57.6248C100.879 58.2166 101.144 58.4359 101.665 58.5992C102.979 58.9577 104.273 59.3868 105.542 59.8847C107.501 60.7264 109.47 61.5529 111.357 62.5782C112.884 63.4088 114.35 64.3464 115.744 65.384C116.791 66.1422 117.741 67.0243 118.576 68.0111C119.384 68.988 120.088 70.0462 120.677 71.1689C121.231 72.1774 121.547 73.2987 121.603 74.4477C121.658 75.5967 121.452 76.7433 120.999 77.8006C120.537 78.9837 119.875 80.0779 119.04 81.0349C118.213 82.0237 117.295 82.9339 116.3 83.7539C115.449 84.4625 114.553 85.1152 113.617 85.7077C112.179 86.5392 110.75 87.3708 109.256 88.1053C107.761 88.8399 106.271 89.3399 104.787 89.9674C103.668 90.4339 102.522 90.8291 101.354 91.1508C101.088 91.2274 101.098 91.3753 101.129 91.61C101.252 92.7221 101.69 93.7576 101.859 94.8646C102.517 99.2365 102.848 103.613 102.267 108.021C101.994 110.369 101.192 112.624 99.9201 114.617C98.884 116.232 97.3072 117.425 95.4717 117.984C93.9051 118.506 92.2298 118.611 90.6101 118.29C88.7905 117.983 87.0189 117.439 85.3404 116.673C84.1376 116.149 82.9703 115.548 81.846 114.872C80.5605 114.005 79.2341 113.204 77.9843 112.276C76.964 111.505 75.9846 110.648 74.9235 109.878C74.2348 109.368 73.6685 108.684 72.9645 108.159C72.6789 107.944 72.5411 107.878 72.2147 108.159C71.123 109.026 70.1486 110.021 69.0365 110.868C67.4653 112.066 65.9196 113.281 64.2361 114.326C63.0985 115.035 61.9099 115.627 60.7519 116.275C59.1297 117.178 57.3748 117.606 55.6506 118.127C54.309 118.538 52.8958 118.662 51.5032 118.489C50.3859 118.372 49.3031 118.034 48.3177 117.495C47.3324 116.955 46.4644 116.225 45.7642 115.347C44.8994 114.174 44.2278 112.87 43.7747 111.485C42.7391 108.791 42.6625 106.016 42.6115 104.016ZM72.1993 58.8695C69.919 58.8695 67.2102 59.0022 64.5014 59.1348C64.1525 59.1386 63.8108 59.2351 63.5115 59.4144C63.2121 59.5937 62.9657 59.8493 62.7976 60.1551C61.7773 61.6855 60.8897 63.2516 59.9204 64.7871C58.9002 66.4297 57.9411 68.1132 57.0382 69.8272C56.324 71.1842 55.6608 72.5717 54.9619 73.9338C54.7911 74.1952 54.6976 74.4997 54.6921 74.8119C54.6867 75.1242 54.7696 75.4316 54.9313 75.6989C55.319 76.3518 55.5843 77.066 55.9771 77.7394C56.6606 78.8821 57.1861 80.1115 57.834 81.2797C58.7624 82.9428 59.7623 84.5548 60.7162 86.1974C60.8072 86.4225 60.9236 86.6365 61.0631 86.8351C61.9814 87.7891 62.3946 89.0899 63.3026 90.0592C63.5424 90.3142 63.6954 90.5081 64.0525 90.5285C66.3532 90.6509 68.6437 90.7886 70.9597 90.8091C74.2654 90.8448 77.566 90.758 80.8615 90.5183C81.1369 90.5183 81.5195 90.5897 81.6419 90.2836C81.8919 89.6613 82.4633 89.2939 82.7745 88.7277C83.0707 88.1281 83.4118 87.5518 83.7947 87.0035C84.613 85.8322 85.3625 84.6143 86.0393 83.356C86.9592 81.8762 87.7905 80.3431 88.5288 78.7648C89.0644 77.566 89.8092 76.4743 90.2785 75.2398C90.343 75.1172 90.3801 74.9821 90.3872 74.8438C90.3942 74.7055 90.3711 74.5673 90.3193 74.4389C89.9316 73.5308 89.4674 72.6636 89.0134 71.7861C88.3043 70.3986 87.6309 69.0008 86.8045 67.6745C86.4882 67.1643 86.2944 66.5675 85.9271 66.0777C85.065 64.8636 84.3967 63.527 83.5498 62.2976C82.9224 61.4151 82.3816 60.4662 81.7491 59.5786C81.6741 59.4605 81.571 59.3628 81.4491 59.2943C81.3271 59.2257 81.1901 59.1885 81.0502 59.1858C78.2394 58.992 75.4285 58.8797 72.179 58.8695H72.1993ZM117.091 74.7755C117.069 74.1616 116.925 73.5582 116.668 73.0003C116.185 71.9047 115.445 70.9421 114.51 70.1945C113.583 69.3587 112.601 68.585 111.572 67.8785C110.129 66.9112 108.612 66.0584 107.036 65.3278C104.874 64.3202 102.642 63.4679 100.359 62.7771C99.9099 62.6394 99.7313 62.7772 99.6191 63.1955C99.364 64.1596 99.109 65.1136 98.8029 66.0726C98.2927 67.8785 97.4561 69.5824 96.8593 71.3678C96.6626 71.9578 96.4151 72.5296 96.1196 73.0768C95.64 73.9695 95.1962 74.8724 95.8798 75.9182C96.0998 76.2722 96.2892 76.6442 96.4461 77.0303C97.0735 78.4791 97.5275 79.9891 98.1397 81.443C98.7876 82.9734 99.16 84.616 99.6701 86.2026C99.915 86.9831 100.18 87.0851 100.859 86.6413C100.987 86.5494 101.128 86.4756 101.277 86.4219C102.898 85.9235 104.489 85.3308 106.042 84.6466C107.626 83.938 109.17 83.1445 110.669 82.2694C112.413 81.242 113.997 79.965 115.372 78.4791C116.349 77.4776 116.949 76.1691 117.071 74.7755H117.091ZM46.9528 102.996C46.9717 104.26 47.0757 105.521 47.264 106.771C47.6721 108.944 47.8914 111.158 49.5392 112.893C49.7923 113.205 50.1111 113.457 50.4727 113.632C51.4689 114.004 52.541 114.125 53.5947 113.984C55.217 113.753 56.7934 113.271 58.2676 112.556C59.6339 111.901 60.9562 111.158 62.2262 110.332C62.7 110.1 63.1465 109.816 63.5577 109.485C64.3892 108.659 65.4248 108.092 66.3124 107.327C67.2 106.562 68.1642 105.654 69.1436 104.879C69.2712 104.777 69.3273 104.685 69.1896 104.532C68.9612 104.2 68.6997 103.892 68.409 103.613C67.4449 102.879 66.8072 101.853 66.0216 100.971C65.264 100.164 64.5554 99.312 63.8995 98.4203C63.1139 97.298 62.1242 96.3185 61.4508 95.1095C61.3454 94.9472 61.1998 94.815 61.0282 94.7256C60.8566 94.6362 60.6647 94.5927 60.4714 94.5994C57.9972 94.2933 55.5026 94.0892 53.0744 93.4771C51.9113 93.1761 50.7176 93.023 49.5443 92.7629C48.371 92.5027 48.3353 92.4772 48.1057 93.7372C48.1057 93.7933 48.0649 93.8546 48.0547 93.9107C47.481 96.9106 47.1129 99.9461 46.9528 102.996V102.996ZM98.0785 46.4324C97.951 45.0908 97.8948 43.7644 97.6857 42.4636C97.489 40.7379 96.9699 39.0646 96.1553 37.5306C95.237 35.939 92.7272 35.1789 91.1509 35.6074C89.3297 36.1175 87.4983 36.5664 85.8047 37.5255C84.2743 38.3825 82.7847 39.2498 81.3614 40.2394C79.957 41.2214 78.6177 42.2932 77.3517 43.4482C76.8832 43.7953 76.4415 44.1773 76.0305 44.5909C75.7295 44.9531 75.8213 45.101 76.0662 45.3612C77.2633 46.6773 78.4536 48.0003 79.6371 49.33C79.9177 49.6463 80.1065 50.0544 80.4125 50.3503C81.2555 51.2406 82.0185 52.2034 82.6928 53.2274C83.3917 54.161 84.0039 55.0384 85.32 55.1609C88.238 55.4312 91.1356 55.9005 93.9923 56.4617C94.7728 56.6096 95.4819 56.9718 96.2675 57.0739C96.594 57.1198 96.7266 57.0739 96.7777 56.7066C96.8746 55.9618 97.0429 55.2272 97.1858 54.4875C97.6908 51.8093 97.7775 49.1005 98.0785 46.4324V46.4324ZM44.7847 62.7568C44.7337 62.7568 44.6164 62.8078 44.499 62.8537C43.6114 63.17 42.7085 63.4301 41.831 63.8076C40.2547 64.4861 38.6121 64.9911 37.097 65.8482C35.9887 66.3806 34.9168 66.9856 33.8882 67.6591C33.3016 68.0928 32.5772 68.3376 32.0619 68.8631C31.2763 69.6691 30.404 70.3935 29.6031 71.174C27.6289 73.1482 27.3891 76.2753 29.3633 78.2291C30.1123 79.0169 30.9024 79.7644 31.7304 80.4686C33.1396 81.5486 34.6341 82.5125 36.1992 83.3509C37.7198 84.1472 39.2832 84.8591 40.8822 85.4832C42.132 85.9934 43.4584 86.3148 44.7031 86.8708C44.8714 86.9422 45.1214 87.0953 45.1775 86.7535C45.2904 86.3939 45.4285 86.0427 45.5907 85.7026C46.1366 83.9018 46.6467 82.0959 47.366 80.3462C48.0853 78.5964 48.6719 76.9079 49.4525 75.2448C49.5421 75.0223 49.5421 74.7736 49.4525 74.5511C49.1923 73.6277 48.5852 72.8676 48.2995 71.9545C47.7588 70.2149 46.9426 68.5774 46.3814 66.8532C46.0426 65.5621 45.6252 64.2928 45.1316 63.0526C45.0959 62.8792 45.101 62.6649 44.7847 62.7516V62.7568ZM46.9069 46.4324C46.9148 47.8908 47.0273 49.3467 47.2436 50.789C47.5547 52.7632 47.8149 54.7374 48.1924 56.7015C48.274 57.13 48.4373 57.1504 48.7995 57.0892C49.3402 56.9922 49.8198 56.7372 50.3554 56.63C53.4672 55.972 56.6046 55.5026 59.7623 55.1353C60.303 55.0741 60.9509 55.069 61.3488 54.5436C62.063 53.6151 62.7517 52.6663 63.4557 51.7328C64.0882 50.8961 64.782 50.1105 65.435 49.2994C66.5311 47.9304 67.6957 46.6177 68.9243 45.3663C69.1538 45.1367 69.2712 44.9888 68.96 44.6929C68.0112 43.7899 67.0011 42.9686 65.9961 42.1422C64.6383 41.0004 63.1993 39.9587 61.6906 39.0253C60.1059 38.0131 58.4202 37.1686 56.6607 36.5052C55.4878 36.0499 54.2563 35.7631 53.003 35.6533C50.8604 35.5564 49.4984 36.1379 48.4118 38.2295C47.565 39.8568 47.3915 41.6882 47.0548 43.4482C46.9058 44.4252 46.8562 45.4148 46.9069 46.4018V46.4324ZM98.1244 103.093C98.0938 101.976 97.9969 100.869 97.8642 99.7568C97.5938 97.4714 97.2827 95.1962 96.8439 92.9363C96.7776 92.5843 96.6603 92.4721 96.2777 92.5741C94.5943 93.0282 92.87 93.2883 91.1764 93.676C89.3592 94.0371 87.5233 94.296 85.6771 94.4514C84.6109 94.5688 83.5499 94.5841 83.1265 95.8543C83.0917 95.9275 83.0432 95.9933 82.9836 96.0481C82.0092 97.2317 81.1471 98.4968 80.1269 99.6191C79.6932 100.129 79.3719 100.69 78.9178 101.149C77.8976 102.17 77.0252 103.287 76.0458 104.317C75.7601 104.618 75.8315 104.771 76.107 104.981C77.1273 105.736 78.02 106.593 78.9637 107.404C79.9075 108.215 80.8716 108.822 81.795 109.562C82.9499 110.413 84.1752 111.164 85.4578 111.806C86.3768 112.307 87.3296 112.744 88.3094 113.112C89.8496 113.714 91.4987 113.987 93.1506 113.913C94.9463 113.826 96.0175 112.704 96.6654 111.24C97.8132 108.638 98.0071 105.853 98.1244 103.068V103.093ZM77.9129 95.084C74.296 95.2523 70.7353 95.2421 67.1592 95.084C67.1672 95.2312 67.2047 95.3752 67.2696 95.5076C67.3344 95.6399 67.4253 95.7578 67.5367 95.8543C68.4499 96.7674 69.1947 97.8285 70.0874 98.7825C70.8118 99.5885 71.6178 100.343 72.2657 101.206C72.4799 101.491 72.6432 101.481 72.8778 101.206C73.2655 100.746 73.7094 100.333 74.1022 99.8793C75.1224 98.6804 76.1784 97.4765 77.2089 96.2624C77.5422 95.9276 77.7845 95.5132 77.9129 95.0585V95.084ZM77.8058 54.4722L77.9027 54.3191C76.9538 53.207 76.0152 52.0898 75.051 50.9879C74.3237 50.0919 73.5435 49.2402 72.7146 48.4373C72.6024 48.3301 72.5361 48.1108 72.2861 48.32C71.2301 49.2076 70.4751 50.3605 69.4905 51.3297C68.9804 51.8093 68.6284 52.4316 68.1234 52.9367C67.7242 53.4148 67.3674 53.9269 67.0572 54.4671C70.72 54.3089 74.2654 54.2936 77.8058 54.4467V54.4722ZM87.4983 89.7123C90.0949 89.2021 92.6915 89.0134 95.1503 88.1819C95.4921 88.0696 95.5431 87.9523 95.436 87.6207C95.0738 86.529 94.8034 85.4118 94.3545 84.3406C93.8444 83.1825 93.5179 81.9633 93.1047 80.7696C93.0435 80.6064 92.9363 80.3054 92.8802 80.3156C92.6507 80.3156 92.5384 80.5553 92.4415 80.7645C91.8855 81.9327 91.2427 83.055 90.6458 84.1926C89.6766 86.0546 88.3961 87.7227 87.4728 89.6868L87.4983 89.7123ZM57.482 59.9714C56.5282 60.0489 55.5817 60.199 54.6507 60.4203C53.1968 60.7927 51.6971 60.9917 50.2228 61.2825C49.4576 61.4304 49.4423 61.4508 49.6514 62.2007C50.0289 63.5423 50.4778 64.8585 50.9829 66.1593C51.391 67.2051 51.7379 68.2815 52.1613 69.4905C53.8294 66.1543 55.6659 63.0832 57.4565 59.9459L57.482 59.9714ZM52.1868 80.3768C51.3144 82.9275 50.2432 85.2894 49.6055 87.8299C49.5239 88.1513 49.7075 88.1461 49.8963 88.2227C50.8489 88.5637 51.8359 88.7998 52.8398 88.9267C54.3957 89.2072 55.9567 89.4368 57.635 89.7327C55.6659 86.5494 53.8039 83.5243 52.1613 80.336L52.1868 80.3768ZM87.3861 59.8949C88.4573 61.6906 89.4725 63.425 90.5132 65.1442C91.2623 66.3886 91.9434 67.6726 92.5537 68.9906C92.5778 69.069 92.6255 69.138 92.6904 69.1882C92.7552 69.2385 92.834 69.2674 92.9159 69.2712C93.2832 68.2101 93.6709 67.1592 94.0127 66.093C94.4361 64.7667 95.033 63.4914 95.3493 62.1344C95.4717 61.6243 95.4207 61.3896 94.8391 61.2978C93.3087 61.0478 91.8242 60.7876 90.3397 60.4356C89.367 60.1858 88.3809 59.9916 87.3861 59.8541V59.8949Z" fill="#149ECA"/>
<path d="M135.4 89.1613L119.723 92.4721C131.599 83.7233 139.573 72.5156 141.817 57.6605C141.991 57.6605 141.986 57.8085 142.011 57.9003C142.817 61.5171 143.797 65.0983 144.307 68.7763C145.025 73.8673 145.181 79.0217 144.771 84.1467C144.065 92.5746 141.775 100.794 138.022 108.373C134.782 114.927 130.583 120.962 125.565 126.279C114.234 138.405 100.211 145.618 84.0651 148.867C75.7652 150.541 67.4398 150.27 59.1552 148.612C51.9416 147.242 44.9571 144.862 38.408 141.542C25.1445 134.686 15.003 124.708 8.20804 111.357C4.38738 103.819 1.8414 95.7001 0.673369 87.3299C-0.417998 79.5226 -0.166122 71.5861 1.41815 63.8637C2.72465 56.9103 4.93709 50.1581 7.99889 43.7797C10.9472 37.7198 14.8348 32.1639 19.5177 27.3177C27.6442 18.926 37.4796 13.289 48.3914 9.38646C49.4116 9.02257 50.4319 8.68248 51.4522 8.36619C52.0353 8.21399 52.5658 7.90551 52.9865 7.474C53.4072 7.0425 53.7022 6.50434 53.8396 5.91755C54.9517 1.94871 58.5481 -0.367316 62.8486 0.0560961C66.5981 0.428494 69.7354 3.73418 70.067 7.6214C70.6179 14.1052 64.3382 18.023 59.2317 16.3549C58.4939 16.1181 57.8032 15.7538 57.1912 15.2785C56.7415 14.9042 56.2035 14.6514 55.6283 14.5443C55.0532 14.4371 54.4602 14.4791 53.9059 14.6664C42.7442 18.0333 32.7047 23.3387 24.512 31.8069C16.22 40.2619 10.5964 50.9679 8.34068 62.5935C7.15491 68.4531 6.67538 74.4337 6.91231 80.4074C7.37649 92.7599 11.2618 104.741 18.1353 115.015C22.6696 122.073 28.5788 128.145 35.5105 132.87C42.3561 137.41 50.0421 140.532 58.1145 142.052C63.697 143.17 69.3931 143.617 75.0816 143.384C84.0273 143.019 92.7998 140.801 100.843 136.869C107.41 133.747 113.457 129.631 118.77 124.667C128.241 115.576 134.132 103.385 135.369 90.3142C135.425 89.9469 135.4 89.5796 135.4 89.1613ZM61.7875 12.5544C62.345 12.5701 62.8999 12.4713 63.4177 12.2642C63.9356 12.0571 64.4056 11.746 64.7985 11.3502C65.1915 10.9543 65.4991 10.4822 65.7025 9.96281C65.9058 9.44344 66.0005 8.88789 65.9808 8.33048C65.9808 5.69819 64.2973 4.05556 61.6242 4.03516C59.446 4.03516 57.4411 6.1165 57.4565 8.3968C57.495 9.51729 57.969 10.5786 58.7778 11.355C59.5866 12.1314 60.6664 12.5617 61.7875 12.5544V12.5544Z" fill="#149ECA"/>
<path d="M81.5909 74.7959C81.7389 79.7289 77.3925 83.9427 72.5106 83.9478C70.0876 83.9172 67.7728 82.939 66.0623 81.2227C64.3517 79.5064 63.3812 77.1884 63.3587 74.7653C63.3587 72.3476 64.3192 70.0289 66.0288 68.3193C67.7384 66.6097 70.0571 65.6492 72.4748 65.6492C74.8926 65.6492 77.2113 66.6097 78.9209 68.3193C80.6305 70.0289 81.5909 72.3476 81.5909 74.7653V74.7959Z" fill="#149ECA"/>
</g>
<defs>
<clipPath id="clip0_8_2">
<rect width="144.996" height="150" fill="white"/>
</clipPath>
</defs>
</svg>
